HIERARCHY
ROOT mixamorig:Hips
{
	OFFSET 0.000000 201.639420 0.000000
	CHANNELS 6 Xposition Yposition Zposition Xrotation Yrotation Zrotation
	JOINT mixamorig:Spine
	{
		OFFSET 0.006200 19.524994 -2.481800
		CHANNELS 3 Xrotation Yrotation Zrotation
		JOINT mixamorig:Spine1
		{
			OFFSET -0.000900 22.835007 -2.825400
			CHANNELS 3 Xrotation Yrotation Zrotation
			JOINT mixamorig:Spine2
			{
				OFFSET -0.020600 26.552490 -3.193300
				CHANNELS 3 Xrotation Yrotation Zrotation
				JOINT mixamorig:Neck
				{
					OFFSET -0.060000 30.701813 1.352200
					CHANNELS 3 Xrotation Yrotation Zrotation
					JOINT mixamorig:Head
					{
						OFFSET -0.087200 22.547607 3.670900
						CHANNELS 3 Xrotation Yrotation Zrotation
						JOINT mixamorig:HeadTop_End
						{
							OFFSET -0.830600 40.355194 7.893500
							CHANNELS 3 Xrotation Yrotation Zrotation
							End Site
							{
								OFFSET 0.000000 30.592346 0.000000
							}
						}
						JOINT mixamorig:RightEye
						{
							OFFSET -6.302100 18.118591 16.197100
							CHANNELS 3 Xrotation Yrotation Zrotation
							End Site
							{
								OFFSET 0.000000 30.592346 0.000000
							}
						}
						JOINT mixamorig:LeftEye
						{
							OFFSET 6.741500 18.382690 16.401899
							CHANNELS 3 Xrotation Yrotation Zrotation
							End Site
							{
								OFFSET 0.000000 30.592346 0.000000
							}
						}
					}
				}
				JOINT mixamorig:LeftShoulder
				{
					OFFSET 11.924900 18.230499 1.425400
					CHANNELS 3 Xrotation Yrotation Zrotation
					JOINT mixamorig:LeftArm
					{
						OFFSET 25.435989 -0.697632 -5.229300
						CHANNELS 3 Xrotation Yrotation Zrotation
						JOINT mixamorig:LeftForeArm
						{
							OFFSET 54.684776 0.000000 0.000000
							CHANNELS 3 Xrotation Yrotation Zrotation
							JOINT mixamorig:LeftHand
							{
								OFFSET 55.098175 0.000000 0.000000
								CHANNELS 3 Xrotation Yrotation Zrotation
								JOINT mixamorig:LeftHandMiddle1
								{
									OFFSET 23.369751 0.000000 0.000000
									CHANNELS 3 Xrotation Yrotation Zrotation
									JOINT mixamorig:LeftHandMiddle2
									{
										OFFSET 6.378677 0.000000 0.000000
										CHANNELS 3 Xrotation Yrotation Zrotation
										JOINT mixamorig:LeftHandMiddle3
										{
											OFFSET 6.148331 0.000000 0.000000
											CHANNELS 3 Xrotation Yrotation Zrotation
											JOINT mixamorig:LeftHandMiddle4
											{
												OFFSET 6.582504 0.000000 0.000000
												CHANNELS 3 Xrotation Yrotation Zrotation
												End Site
												{
													OFFSET -1.168900 6.395691 1.028606
												}
											}
										}
									}
								}
								JOINT mixamorig:LeftHandThumb1
								{
									OFFSET 7.235672 -3.848206 5.434273
									CHANNELS 3 Xrotation Yrotation Zrotation
									JOINT mixamorig:LeftHandThumb2
									{
										OFFSET 6.568451 -3.792297 3.792300
										CHANNELS 3 Xrotation Yrotation Zrotation
										JOINT mixamorig:LeftHandThumb3
										{
											OFFSET 6.063080 -3.500519 3.500518
											CHANNELS 3 Xrotation Yrotation Zrotation
											JOINT mixamorig:LeftHandThumb4
											{
												OFFSET 4.793182 -2.767334 2.767349
												CHANNELS 3 Xrotation Yrotation Zrotation
												End Site
												{
													OFFSET 0.101639 6.054260 1.275483
												}
											}
										}
									}
								}
								JOINT mixamorig:LeftHandIndex1
								{
									OFFSET 23.101074 -0.309540 4.992809
									CHANNELS 3 Xrotation Yrotation Zrotation
									JOINT mixamorig:LeftHandIndex2
									{
										OFFSET 6.226883 0.000000 0.000000
										CHANNELS 3 Xrotation Yrotation Zrotation
										JOINT mixamorig:LeftHandIndex3
										{
											OFFSET 6.094330 0.000000 0.000000
											CHANNELS 3 Xrotation Yrotation Zrotation
											JOINT mixamorig:LeftHandIndex4
											{
												OFFSET 5.482605 0.000000 0.000000
												CHANNELS 3 Xrotation Yrotation Zrotation
												End Site
												{
													OFFSET -1.427902 5.233032 0.797164
												}
											}
										}
									}
								}
								JOINT mixamorig:LeftHandRing1
								{
									OFFSET 22.299240 0.021149 -3.964172
									CHANNELS 3 Xrotation Yrotation Zrotation
									JOINT mixamorig:LeftHandRing2
									{
										OFFSET 6.321869 0.000000 0.000000
										CHANNELS 3 Xrotation Yrotation Zrotation
										JOINT mixamorig:LeftHandRing3
										{
											OFFSET 5.899796 0.000000 0.000000
											CHANNELS 3 Xrotation Yrotation Zrotation
											JOINT mixamorig:LeftHandRing4
											{
												OFFSET 6.517899 0.000000 0.000000
												CHANNELS 3 Xrotation Yrotation Zrotation
												End Site
												{
													OFFSET -1.637299 6.232208 0.980890
												}
											}
										}
									}
								}
								JOINT mixamorig:LeftHandPinky1
								{
									OFFSET 20.463791 -0.302338 -8.562233
									CHANNELS 3 Xrotation Yrotation Zrotation
									JOINT mixamorig:LeftHandPinky2
									{
										OFFSET 6.908646 0.000000 0.000000
										CHANNELS 3 Xrotation Yrotation Zrotation
										JOINT mixamorig:LeftHandPinky3
										{
											OFFSET 4.622849 0.000000 0.000000
											CHANNELS 3 Xrotation Yrotation Zrotation
											JOINT mixamorig:LeftHandPinky4
											{
												OFFSET 5.216080 0.000000 0.000000
												CHANNELS 3 Xrotation Yrotation Zrotation
												End Site
												{
													OFFSET -0.606308 5.116241 0.814926
												}
											}
										}
									}
								}
							}
						}
					}
				}
				JOINT mixamorig:RightShoulder
				{
					OFFSET -12.001300 18.284088 1.348900
					CHANNELS 3 Xrotation Yrotation Zrotation
					JOINT mixamorig:RightArm
					{
						OFFSET -25.308500 -0.751312 -5.164599
						CHANNELS 3 Xrotation Yrotation Zrotation
						JOINT mixamorig:RightForeArm
						{
							OFFSET -54.684429 0.000000 0.000000
							CHANNELS 3 Xrotation Yrotation Zrotation
							JOINT mixamorig:RightHand
							{
								OFFSET -55.150291 0.000000 0.000000
								CHANNELS 3 Xrotation Yrotation Zrotation
								JOINT mixamorig:RightHandMiddle1
								{
									OFFSET -23.317566 0.000000 0.000000
									CHANNELS 3 Xrotation Yrotation Zrotation
									JOINT mixamorig:RightHandMiddle2
									{
										OFFSET -6.378403 0.000000 0.000000
										CHANNELS 3 Xrotation Yrotation Zrotation
										JOINT mixamorig:RightHandMiddle3
										{
											OFFSET -6.148193 0.000000 0.000000
											CHANNELS 3 Xrotation Yrotation Zrotation
											JOINT mixamorig:RightHandMiddle4
											{
												OFFSET -6.583389 0.000000 0.000000
												CHANNELS 3 Xrotation Yrotation Zrotation
												End Site
												{
													OFFSET 1.171692 6.395905 1.029786
												}
											}
										}
									}
								}
								JOINT mixamorig:RightHandThumb1
								{
									OFFSET -7.190521 -3.860474 5.435846
									CHANNELS 3 Xrotation Yrotation Zrotation
									JOINT mixamorig:RightHandThumb2
									{
										OFFSET -6.567429 -3.791718 3.791708
										CHANNELS 3 Xrotation Yrotation Zrotation
										JOINT mixamorig:RightHandThumb3
										{
											OFFSET -6.062469 -3.500153 3.500166
											CHANNELS 3 Xrotation Yrotation Zrotation
											JOINT mixamorig:RightHandThumb4
											{
												OFFSET -4.792618 -2.767029 2.767022
												CHANNELS 3 Xrotation Yrotation Zrotation
												End Site
												{
													OFFSET -0.100327 6.053253 1.276754
												}
											}
										}
									}
								}
								JOINT mixamorig:RightHandIndex1
								{
									OFFSET -23.048981 -0.310791 4.992554
									CHANNELS 3 Xrotation Yrotation Zrotation
									JOINT mixamorig:RightHandIndex2
									{
										OFFSET -6.227539 0.000000 0.000000
										CHANNELS 3 Xrotation Yrotation Zrotation
										JOINT mixamorig:RightHandIndex3
										{
											OFFSET -6.095047 0.000000 0.000000
											CHANNELS 3 Xrotation Yrotation Zrotation
											JOINT mixamorig:RightHandIndex4
											{
												OFFSET -5.484772 0.000000 0.000000
												CHANNELS 3 Xrotation Yrotation Zrotation
												End Site
												{
													OFFSET 1.420593 5.237305 0.797056
												}
											}
										}
									}
								}
								JOINT mixamorig:RightHandRing1
								{
									OFFSET -22.246323 0.020569 -3.963762
									CHANNELS 3 Xrotation Yrotation Zrotation
									JOINT mixamorig:RightHandRing2
									{
										OFFSET -6.322128 0.000000 0.000000
										CHANNELS 3 Xrotation Yrotation Zrotation
										JOINT mixamorig:RightHandRing3
										{
											OFFSET -5.900024 0.000000 0.000000
											CHANNELS 3 Xrotation Yrotation Zrotation
											JOINT mixamorig:RightHandRing4
											{
												OFFSET -6.518356 0.000000 0.000000
												CHANNELS 3 Xrotation Yrotation Zrotation
												End Site
												{
													OFFSET 1.636398 6.232697 0.982186
												}
											}
										}
									}
								}
								JOINT mixamorig:RightHandPinky1
								{
									OFFSET -20.411011 -0.303314 -8.561701
									CHANNELS 3 Xrotation Yrotation Zrotation
									JOINT mixamorig:RightHandPinky2
									{
										OFFSET -6.907349 0.000000 0.000000
										CHANNELS 3 Xrotation Yrotation Zrotation
										JOINT mixamorig:RightHandPinky3
										{
											OFFSET -4.623840 0.000000 0.000000
											CHANNELS 3 Xrotation Yrotation Zrotation
											JOINT mixamorig:RightHandPinky4
											{
												OFFSET -5.218353 0.000000 0.000000
												CHANNELS 3 Xrotation Yrotation Zrotation
												End Site
												{
													OFFSET 0.602097 5.118835 0.816273
												}
											}
										}
									}
								}
							}
						}
					}
				}
			}
		}
	}
	JOINT mixamorig:LeftUpLeg
	{
		OFFSET 18.168400 -13.561905 -0.039000
		CHANNELS 3 Xrotation Yrotation Zrotation
		JOINT mixamorig:LeftLeg
		{
			OFFSET 0.577358 -80.825211 -3.695000
			CHANNELS 3 Xrotation Yrotation Zrotation
			JOINT mixamorig:LeftFoot
			{
				OFFSET -0.577356 -83.370262 -6.520700
				CHANNELS 3 Xrotation Yrotation Zrotation
				JOINT mixamorig:LeftToeBase
				{
					OFFSET 0.750401 -20.798306 25.135401
					CHANNELS 3 Xrotation Yrotation Zrotation
					JOINT mixamorig:LeftToe_End
					{
						OFFSET -0.000500 0.001200 19.917799
						CHANNELS 3 Xrotation Yrotation Zrotation
						End Site
						{
							OFFSET 0.000000 19.917805 0.000000
						}
					}
				}
			}
		}
	}
	JOINT mixamorig:RightUpLeg
	{
		OFFSET -18.162500 -13.585098 -0.041000
		CHANNELS 3 Xrotation Yrotation Zrotation
		JOINT mixamorig:RightLeg
		{
			OFFSET -0.595024 -80.945297 -3.631900
			CHANNELS 3 Xrotation Yrotation Zrotation
			JOINT mixamorig:RightFoot
			{
				OFFSET 0.595024 -83.218193 -6.561200
				CHANNELS 3 Xrotation Yrotation Zrotation
				JOINT mixamorig:RightToeBase
				{
					OFFSET -0.753601 -20.807106 25.115000
					CHANNELS 3 Xrotation Yrotation Zrotation
					JOINT mixamorig:RightToe_End
					{
						OFFSET 0.000299 0.001700 19.918200
						CHANNELS 3 Xrotation Yrotation Zrotation
						End Site
						{
							OFFSET 0.000000 19.918203 0.000000
						}
					}
				}
			}
		}
	}
}
MOTION
Frames: 4
Frame Time: 0.033333
0.978046 167.447784 -0.656355 1.703064 -25.940399 -4.720431 7.251282 -0.080131 1.644892 14.503027 -0.179862 2.544837 14.503017 -0.179850 2.544833 -2.317271 6.746658 -2.914303 -14.308555 14.251908 11.651418 -0.000000 0.000000 0.000001 -0.000000 0.000000 0.000001 -0.000000 0.000000 0.000001 -22.675352 -32.031569 9.752240 -63.762459 -1.221505 -45.764812 -19.138718 -51.960340 -17.493650 -101.938272 1.308079 22.414782 -0.349294 -1.567196 -62.978784 -6.178140 -6.585375 -60.285743 -0.000003 -0.000012 0.000002 0.000002 0.000003 0.000001 3.592862 4.185064 -5.135197 1.252889 4.302587 1.889377 0.000001 0.000009 -0.000005 0.000000 -0.000001 0.000000 7.555696 5.560073 -33.409809 -14.917838 -6.766442 -80.641489 0.000001 -0.000000 0.000011 0.000000 -0.000000 -0.000002 -5.286642 4.623922 -73.484311 0.756653 -3.524521 -58.282325 -0.000001 0.000008 0.000008 -0.000001 0.000001 -0.000003 -16.249063 1.424385 -86.150221 2.608644 -7.578249 -55.784351 0.000005 0.000010 0.000002 0.000000 0.000002 0.000004 14.165792 22.272537 -22.911849 -59.015341 18.103230 55.242563 -2.550309 122.791966 -2.433425 -37.170084 -37.481845 -30.440722 3.632945 5.778222 48.859656 -9.398551 -0.919901 110.760567 0.000005 -0.000003 0.000001 0.000001 -0.000001 -0.000001 15.407464 -4.518693 17.011011 11.550415 4.015386 -20.411400 0.000008 0.000002 -0.000009 -0.000002 0.000000 -0.000000 1.848460 -0.977659 4.787212 -1.782742 -0.103308 22.316134 -0.000009 -0.000000 -0.000006 0.000001 -0.000000 -0.000001 -8.676667 -5.660135 54.893407 -4.718072 8.863108 96.804845 0.000002 0.000001 0.000002 0.000000 -0.000001 -0.000003 -12.563111 0.076793 69.891728 -3.478725 14.095389 79.771173 0.000003 -0.000003 -0.000003 0.000003 0.000000 -0.000003 -40.173533 19.777397 16.030722 95.202387 -1.699269 -2.970435 1.095333 -3.383098 9.878754 -11.391415 -0.135190 2.551824 0.000003 0.000000 0.000001 -55.894132 3.757160 16.094494 66.379876 -7.582202 1.852271 -12.415543 2.160610 -1.489071 -0.020424 -0.190060 0.444140 -0.000000 0.000001 -0.000000 
0.867145 167.960846 15.569830 1.503413 -27.299173 -4.247862 7.240392 0.002449 1.455404 14.480530 -0.039995 1.943805 14.480530 -0.039993 1.943803 -2.325127 6.731524 -3.410233 -14.473446 14.217617 12.324865 -0.000000 -0.000000 0.000001 -0.000000 -0.000000 0.000001 -0.000000 -0.000000 0.000001 -22.834888 -31.082757 9.896962 -63.078580 -1.199386 -46.307542 -19.244302 -52.199792 -17.609532 -102.238417 1.204173 22.282194 -0.349291 -1.567186 -62.978777 -6.178123 -6.585366 -60.285749 -0.000001 -0.000013 0.000004 0.000001 0.000000 0.000004 3.572494 4.085974 -5.099713 1.252896 4.302591 1.889375 -0.000001 0.000010 -0.000008 0.000001 0.000005 -0.000001 7.555712 5.560088 -33.409823 -14.917850 -6.766446 -80.641496 -0.000002 0.000000 0.000012 -0.000001 0.000001 -0.000001 -5.286630 4.623923 -73.484291 0.756661 -3.524512 -58.282325 -0.000001 0.000009 0.000007 -0.000003 -0.000002 0.000001 -16.249070 1.424382 -86.150235 2.608656 -7.578245 -55.784320 0.000004 0.000013 0.000003 0.000003 -0.000002 -0.000002 14.197654 22.508291 -23.094043 -58.501895 18.466788 54.904192 -2.552571 122.935755 -2.435905 -38.130289 -37.058677 -31.205085 3.632946 5.778219 48.859663 -9.398575 -0.919907 110.760567 0.000004 -0.000004 0.000003 0.000000 -0.000001 0.000001 15.407462 -4.518694 17.011010 11.550421 4.015388 -20.411402 0.000007 0.000002 -0.000010 -0.000002 0.000000 -0.000000 1.865674 -1.087516 4.783313 -1.782746 -0.103317 22.316122 -0.000007 0.000000 -0.000009 0.000001 -0.000000 0.000002 -8.676677 -5.660148 54.893407 -4.718048 8.863115 96.804824 0.000002 0.000001 0.000002 -0.000003 0.000001 0.000001 -12.563141 0.076769 69.891741 -3.478709 14.095388 79.771193 -0.000003 -0.000002 -0.000000 0.000004 0.000001 -0.000001 -48.981872 16.873405 18.240568 96.524431 -2.752892 -3.052816 -6.551997 -4.089157 8.105459 -8.306919 -0.085903 1.678833 0.000001 0.000001 -0.000000 -52.225559 5.859136 14.896311 71.280134 -8.401303 1.932460 -18.587303 3.284207 -1.308597 -2.174891 -0.242026 2.305284 0.000000 0.000001 0.000000 
0.696444 169.697769 31.885056 1.575700 -29.100164 -3.426675 7.184435 0.128847 1.086881 14.369531 0.156659 1.215450 14.369526 0.156659 1.215449 -2.296434 6.711302 -4.055821 -14.677756 14.157036 13.239881 -0.000000 0.000000 -0.000002 -0.000000 0.000000 -0.000002 -0.000000 0.000000 -0.000002 -23.045692 -29.819079 10.076082 -62.202239 -1.088565 -47.076409 -19.392205 -52.529335 -17.772379 -102.620826 1.023736 21.963751 -0.349285 -1.567164 -62.978784 -6.178134 -6.585373 -60.285763 -0.000001 -0.000011 0.000004 0.000001 0.000001 0.000002 3.491143 3.684834 -4.957583 1.252888 4.302593 1.889376 -0.000002 0.000007 -0.000004 0.000002 -0.000003 0.000000 7.555700 5.560078 -33.409816 -14.917833 -6.766442 -80.641489 -0.000001 -0.000000 0.000011 0.000000 0.000001 -0.000000 -5.286637 4.623939 -73.484305 0.756656 -3.524510 -58.282325 -0.000002 0.000008 0.000012 0.000004 -0.000000 0.000002 -16.249063 1.424399 -86.150207 2.608629 -7.578255 -55.784354 0.000005 0.000009 0.000006 -0.000004 0.000000 0.000001 14.244284 22.927726 -23.268810 -57.771386 18.963713 54.327803 -2.556836 123.123558 -2.444406 -39.291729 -36.557242 -32.112237 3.632929 5.778234 48.859676 -9.398561 -0.919897 110.760574 0.000006 -0.000005 0.000004 0.000002 0.000000 -0.000000 15.407464 -4.518693 17.011010 11.550420 4.015388 -20.411400 0.000012 0.000002 -0.000009 -0.000002 -0.000001 0.000001 1.904585 -1.336051 4.786863 -1.782757 -0.103322 22.316122 -0.000009 -0.000000 -0.000004 0.000001 0.000001 -0.000001 -8.676689 -5.660148 54.893411 -4.718047 8.863098 96.804845 0.000002 0.000002 -0.000000 0.000001 -0.000001 0.000001 -12.563141 0.076786 69.891748 -3.478722 14.095378 79.771200 0.000000 -0.000003 0.000002 0.000001 0.000000 -0.000003 -55.323054 14.230377 20.445157 92.050439 -3.785131 -3.041957 -14.084294 -1.389236 3.210828 -2.865601 -0.040048 0.056710 0.000001 -0.000000 -0.000000 -46.911600 8.516980 13.010487 73.155417 -10.592537 1.867698 -24.185597 5.306984 -0.922865 -4.004128 -0.269552 2.949945 0.000000 -0.000002 0.000000 
0.506657 171.823074 48.080128 1.990514 -31.070834 -2.327121 7.085953 0.277730 0.640008 14.174593 0.370724 0.440686 14.174597 0.370723 0.440686 -2.220669 6.688166 -4.760734 -14.891112 14.080846 14.291290 0.000000 -0.000000 0.000000 0.000000 -0.000000 0.000000 0.000000 -0.000000 0.000000 -23.282071 -28.372310 10.274743 -61.377439 -1.093717 -47.899041 -19.526942 -52.824311 -17.912106 -103.006622 0.812108 21.583821 -0.349307 -1.567162 -62.978797 -6.178137 -6.585369 -60.285743 -0.000004 -0.000013 0.000000 0.000002 0.000003 -0.000000 3.430110 3.387799 -4.854857 1.252891 4.302592 1.889375 -0.000001 0.000005 -0.000007 0.000001 -0.000001 0.000000 7.555698 5.560085 -33.409833 -14.917830 -6.766434 -80.641489 -0.000004 -0.000001 0.000012 0.000002 0.000001 0.000001 -5.286640 4.623937 -73.484298 0.756632 -3.524510 -58.282318 -0.000003 0.000006 0.000013 0.000002 -0.000000 0.000001 -16.249058 1.424399 -86.150214 2.608639 -7.578253 -55.784344 0.000001 0.000011 0.000005 -0.000001 -0.000000 0.000003 14.301995 23.515149 -23.390895 -57.083429 19.500815 53.653014 -2.562081 123.290297 -2.457491 -40.364007 -36.077865 -32.929291 3.632950 5.778231 48.859663 -9.398557 -0.919895 110.760567 0.000005 -0.000003 -0.000001 0.000001 0.000001 0.000001 15.407466 -4.518693 17.011010 11.550418 4.015389 -20.411404 0.000006 0.000001 -0.000009 0.000004 -0.000002 -0.000001 1.940334 -1.600146 4.790820 -1.782746 -0.103315 22.316140 -0.000008 0.000000 -0.000007 -0.000000 -0.000001 -0.000002 -8.676665 -5.660134 54.893418 -4.718068 8.863110 96.804831 0.000002 0.000001 0.000003 0.000002 0.000000 0.000003 -12.563117 0.076786 69.891748 -3.478740 14.095375 79.771214 0.000001 -0.000004 -0.000001 -0.000001 0.000001 0.000002 -59.517005 12.536595 22.763098 82.895335 -4.660379 -2.924811 -19.569793 4.656535 0.473233 -2.847031 -0.035136 0.056206 0.000000 0.000000 -0.000000 -40.644837 11.339978 10.205900 72.409342 -12.747448 1.747798 -28.196068 6.998167 0.635715 -6.445193 -0.248281 2.812108 -0.000000 -0.000002 -0.000000 
